<svg width="98" height="72" viewBox="0 0 98 72" fill="none" xmlns="http://www.w3.org/2000/svg">
<path d="M1.20221 38.169L13.7845 43.0185C13.9907 43.1339 14.197 43.1339 14.4033 43.1339C14.7127 43.1339 14.9189 43.0185 15.1252 42.903C15.5377 42.6721 15.8471 42.3257 16.0534 41.7483L26.0574 9.18741L26.7793 9.5338C29.2545 10.573 32.0391 10.342 34.4112 9.07194L35.6488 8.37915C37.1958 7.5709 38.949 7.45544 40.5992 8.03276L63.8042 17.039C63.5979 18.0782 63.0822 19.4637 62.154 20.1565C61.1227 20.9648 59.6788 20.9648 57.7193 20.1565L47.406 16.2307C46.9934 15.9998 46.4778 16.1153 45.9621 16.3462C45.5496 16.5771 45.2402 17.039 45.137 17.6163C45.137 17.7318 43.6932 23.7359 39.1553 26.5071C36.2675 28.239 32.6579 28.3545 28.4294 26.738C27.5012 26.3916 26.4699 26.9689 26.1605 28.0081C25.8511 29.0473 26.3667 30.2019 27.2949 30.5483C29.667 31.472 31.936 31.9339 34.1018 31.9339C36.577 31.9339 38.7428 31.3566 40.8054 30.0864C44.9308 27.6617 46.9934 23.2741 47.9216 20.7338L56.5848 24.0823C59.6788 25.2369 62.154 25.1215 64.2167 23.505C67.4138 21.0802 67.517 16.1153 67.517 15.8843C67.517 15.0761 67.1044 14.2678 66.3825 13.9214L41.8368 4.45337C39.3616 3.52965 36.577 3.64512 34.2049 5.03069L32.9673 5.72348C31.4203 6.53173 29.667 6.64719 28.0169 6.06987L25.9542 5.26162C25.8511 5.14615 25.748 5.14615 25.6448 5.03069L13.0625 0.181189C12.65 0.0657247 12.1343 0.0657229 11.7218 0.296652C11.3093 0.52758 10.9999 0.873973 10.7936 1.45129L0.0677436 35.6287C-0.0353897 36.0906 -0.0353898 36.6679 0.170877 37.1298C0.377144 37.5916 0.789677 37.938 1.20221 38.169ZM13.4751 4.22244L22.7571 7.80183L13.2688 38.6308L3.98681 35.0514L13.4751 4.22244ZM11.9281 33.7813C11.5155 35.0514 10.2779 35.7442 9.14348 35.2823C8.00901 34.8205 7.39021 33.4349 7.80274 32.1648C8.21528 30.8947 9.45288 30.2019 10.5873 30.6638C11.7218 31.0102 12.3406 32.3957 11.9281 33.7813ZM82.3682 40.8246L78.0366 45.3277C74.1175 49.369 69.6828 52.7175 64.9386 55.3731L42.043 67.9588C41.5273 68.1897 41.0117 68.3051 40.3929 68.0742C39.8772 67.8433 39.4647 67.4969 39.1553 66.9196C38.949 66.3422 38.8459 65.7649 39.0522 65.0721C39.2584 64.4948 39.5678 64.033 40.0835 63.6866L52.872 56.6432C53.6971 56.1814 54.1096 55.0267 53.6971 53.9876C53.2846 53.0639 52.2532 52.602 51.325 53.0639L38.8459 59.9917L32.5548 63.4556C31.5234 64.033 30.2858 63.5711 29.7702 62.4165C29.2545 61.2618 29.667 59.8762 30.6983 59.2989L32.0391 58.6061L35.4425 56.7587L49.1592 49.1381C49.9843 48.6762 50.3968 47.5216 49.9843 46.4824C49.5718 45.5587 48.5404 45.0968 47.6122 45.5587L30.5952 54.9113L29.2545 55.6041L26.9855 56.8742C26.4699 57.1051 25.9542 57.2206 25.3354 56.9896C24.8197 56.7587 24.4072 56.4123 24.0978 55.835C23.8915 55.2577 23.7884 54.6804 23.9947 53.9876C24.2009 53.4102 24.5103 52.9484 25.026 52.602L27.2949 51.3319L43.7963 42.3257C44.6214 41.8638 45.0339 40.7092 44.6214 39.67C44.2088 38.7463 43.1775 38.2844 42.2493 38.7463L31.6266 44.5195L25.7479 47.7525C25.2323 47.9834 24.7166 48.0989 24.0978 47.868C23.5821 47.637 23.1696 47.2906 22.8602 46.7133C22.6539 46.136 22.5508 45.5587 22.7571 44.8659C22.9633 44.2886 23.2727 43.8267 23.7884 43.4803L32.5548 38.7463C33.3798 38.2844 33.7924 37.1298 33.3798 36.0906C32.9673 35.0514 31.936 34.705 31.0078 35.1669L22.2414 39.9009C20.9007 40.5937 19.8693 41.8638 19.3537 43.4803C18.838 45.0968 18.9411 46.8288 19.6631 48.3298C20.0756 49.2535 20.6944 50.0618 21.4163 50.6391C21.0038 51.2164 20.6944 51.7937 20.4881 52.4865C19.9725 54.103 20.0756 55.835 20.7975 57.336C21.4163 58.8371 22.5508 59.9917 23.9947 60.569C24.6135 60.8 25.2323 60.9154 25.8511 60.9154C25.8511 61.9546 25.9542 62.9938 26.3667 63.9175C27.2949 66.1113 29.3576 67.4969 31.4203 67.4969C32.2454 67.4969 33.0704 67.266 33.8955 66.8041L35.2362 66.1113C35.2362 66.9196 35.4425 67.7278 35.7519 68.4206C36.3707 69.9216 37.5051 71.0763 38.949 71.6536C39.5678 71.8845 40.1866 72 40.8054 72C41.6305 72 42.4556 71.7691 43.2806 71.3072L66.1762 58.7216C71.2298 55.9505 75.9739 52.3711 80.0992 48.0989L85.2559 42.7875L97.0131 36.3215C97.8382 35.8597 98.2507 34.705 97.8382 33.6658L83.812 1.1049C83.3995 0.181188 82.3682 -0.280668 81.44 0.181189L69.4765 6.76265C69.064 6.99358 68.7546 7.33998 68.5483 7.9173C68.4452 8.37915 68.4452 8.95648 68.6514 9.41834L82.3682 40.8246ZM81.44 4.56883L94.2285 33.7813L85.359 38.6308L72.5705 9.41834L81.44 4.56883ZM86.3904 33.6658C85.8747 32.5112 86.2872 31.1256 87.3186 30.5483C88.3499 29.971 89.5875 30.4328 90.1032 31.5875C90.6188 32.7421 90.2063 34.1277 89.175 34.705C88.1436 35.3978 86.906 34.8205 86.3904 33.6658Z" fill="#EFEFEF"/>
</svg>
