<svg width="78" height="77" viewBox="0 0 78 77" fill="none" xmlns="http://www.w3.org/2000/svg">
<path fill-rule="evenodd" clip-rule="evenodd" d="M51.3276 40.0255C50.5045 39.492 49.6422 39.0477 48.7449 38.6879C43.9153 36.7518 38.5278 37.4581 33.7368 39.0188C28.9109 40.5909 24.4014 43.1233 21.1319 45.2284C19.4887 46.2864 18.1399 47.2487 17.1987 47.9491C16.8201 48.2308 16.5069 48.4705 16.2664 48.6576C14.6054 46.7399 14.5033 43.7776 16.4661 41.903L38.8404 20.5342C41.628 17.8719 46.4291 19.382 47.3367 23.2065L51.3276 40.0255ZM53.1208 47.5825C51.4255 44.838 49.3851 43.254 47.2565 42.4007C43.6874 40.9699 39.3793 41.3876 34.9757 42.8221C30.607 44.2453 26.4228 46.5792 23.2973 48.5916C22.026 49.4101 20.9421 50.1674 20.1069 50.7753L48.5369 61.3983C52.2889 62.8003 55.9848 59.6525 55.0773 55.828L53.1208 47.5825Z" fill="url(#paint0_linear_517_254)"/>
<defs>
<linearGradient id="paint0_linear_517_254" x1="65.0869" y1="7.71145" x2="74.3636" y2="73.767" gradientUnits="userSpaceOnUse">
<stop stop-color="#DAA520"/>
<stop offset="0.935832" stop-color="#FFE39E"/>
</linearGradient>
</defs>
</svg>
