<svg width="82" height="82" viewBox="0 0 82 82" fill="none" xmlns="http://www.w3.org/2000/svg">
<path fill-rule="evenodd" clip-rule="evenodd" d="M12.0294 68.6043C5.23232 61.4683 1.30342 52.0612 1.01685 42.1883C0.722378 32.0427 4.29623 22.165 11.0133 14.5593C17.7304 6.95355 27.0876 2.18937 37.1864 1.23343C47.2393 0.281838 55.5868 2.15747 63.6327 8.3784L64.4986 7.51197C67.0092 4.99997 71.0796 4.99997 73.59 7.51197L74.6056 8.52799C77.116 11.0399 77.116 15.1126 74.6056 17.6246L74.2207 18.0097C80.3698 26.1226 81.7089 35.0948 80.6921 45.0798C79.6638 55.1774 74.835 64.5053 67.1854 71.1712C59.5357 77.8371 49.6382 81.3416 39.501 80.9737C38.994 80.9553 38.598 80.5293 38.6165 80.0221C38.6349 79.515 39.0606 79.1187 39.5675 79.1371C49.2387 79.4881 58.6812 76.1447 65.9791 69.7853C73.277 63.4259 77.8838 54.5268 78.8648 44.8935C79.843 35.2882 78.5605 26.8959 72.909 19.322L28.7644 63.4923L14.6131 69.9752C13.4277 70.5182 12.2143 69.7088 12.0294 68.6043ZM12.3897 15.7762C18.7979 8.52018 27.7249 3.97505 37.3594 3.06306C46.9458 2.15563 54.7604 3.9114 62.3229 9.68902L18.6576 53.3796L12.631 66.5502C6.59435 59.845 3.11581 51.1956 2.85281 42.1349C2.57188 32.4558 5.98143 23.0323 12.3897 15.7762ZM21.178 54.7563L62.7896 13.1206L63.1833 13.9083C63.7154 14.9728 64.405 15.9393 65.2217 16.7793L23.6994 58.3257C22.7907 57.4755 22.0319 56.4647 21.4666 55.3337L21.178 54.7563ZM24.399 58.9252C25.1362 59.503 25.9521 59.9844 26.8285 60.3521L27.6586 60.7002L68.9835 19.3513C67.8461 18.8706 66.8029 18.2136 65.8881 17.4121L24.399 58.9252ZM64.0047 13.4973L63.474 12.4358L66.4469 9.46123C67.8814 8.02582 70.2073 8.02582 71.6419 9.46123L72.6573 10.4773C74.0919 11.9127 74.0919 14.24 72.6573 15.6753L69.6851 18.6493L69.3666 18.5157C67.037 17.5383 65.1346 15.7579 64.0047 13.4973ZM20.6245 55.7033L16.6163 64.4628L17.6877 65.5347L26.8272 61.3479L26.4735 61.1995C23.9413 60.1372 21.8735 58.2019 20.6453 55.7448L20.6245 55.7033Z" fill="#EFEFEF" stroke="#EFEFEF"/>
</svg>
