<svg width="76" height="60" viewBox="0 0 76 60" fill="none" xmlns="http://www.w3.org/2000/svg">
<path d="M27.5389 53.3337C18.4867 53.3337 10.8553 50.895 10.2828 50.7075C9.58268 50.4788 9.033 49.9389 8.80015 49.2512C8.44973 48.2186 0.377828 23.8178 14.1137 10.3253C27.6336 -2.95568 56.6765 0.312454 57.908 0.458687C58.9806 0.585423 59.8265 1.41633 59.9555 2.46996C60.1037 3.67807 63.4307 32.2071 49.9109 45.4881C43.6583 51.6299 35.1024 53.3337 27.5389 53.3337ZM12.9098 46.6685C17.7065 47.9763 36.417 52.2224 46.5945 42.2305C56.6872 32.3151 55.9467 11.2215 55.4673 4.86744C48.9986 4.39799 27.5252 3.66833 17.4301 13.583C7.23051 23.6018 11.5707 41.956 12.9098 46.6685Z" fill="white"/>
<path d="M2.3453 59.3518C1.74524 59.3518 1.14517 59.1268 0.6871 58.6769C-0.229033 57.7777 -0.229033 56.3184 0.6871 55.4193L38.5295 18.2474C39.4457 17.3475 40.9298 17.3475 41.8459 18.2474C42.7621 19.1466 42.7621 20.6059 41.8459 21.5051L4.00351 58.6769C3.54544 59.1268 2.94537 59.3518 2.3453 59.3518Z" fill="white"/>
<path d="M43.01 59.2108C34.8579 59.2116 27.0738 55.558 22.4054 52.8343C21.2915 52.1849 20.9243 50.7713 21.5862 49.6779C22.2473 48.5845 23.6849 48.2216 24.7995 48.8732C30.5345 52.2186 41.5373 57.2026 50.7864 52.9985C62.2519 47.7859 68.2571 30.1231 69.9298 24.4193C67.512 23.3469 62.7672 21.4091 57.2437 20.0285C55.9878 19.715 55.2289 18.4612 55.5488 17.2283C55.8687 15.9939 57.1459 15.2478 58.3995 15.5635C66.9104 17.6903 73.4951 20.9689 73.7715 21.1076C74.7334 21.5906 75.2358 22.6555 74.9877 23.6888C74.7304 24.7605 68.5007 50.0221 52.7561 57.1801C49.5657 58.6304 46.2577 59.2108 43.01 59.2108Z" fill="white"/>
</svg>
