<svg width="36" height="36" viewBox="0 0 36 36" fill="none" xmlns="http://www.w3.org/2000/svg">
<path d="M26.95 0.014267H9.02141C4.05393 0.014267 0 4.06819 0 9.03568V26.9929C0 31.9318 4.05393 35.9857 9.02141 35.9857H26.9786C31.9461 35.9857 36 31.9318 36 26.9643V9.03568C35.9715 4.06819 31.9175 0.014267 26.95 0.014267ZM11.9905 29.134H6.85171V14.2887H11.9905V29.134ZM9.39255 12.0048C7.93656 12.0048 6.76606 10.8343 6.76606 9.37826C6.76606 7.92228 7.93656 6.75178 9.39255 6.75178C10.8485 6.75178 12.019 7.92228 12.019 9.37826C11.9905 10.8343 10.82 12.0048 9.39255 12.0048ZM29.1483 29.134H29.1197H24.8374V21.9397C24.8374 20.1982 24.609 17.9714 22.2395 17.9714C19.8128 17.9714 19.4132 19.8557 19.4132 21.8255V29.134H15.1308V14.2887H19.1277V16.2871H19.2419C19.8699 15.1451 21.3259 14.2601 23.6098 14.2601C28.3204 14.2601 29.1483 16.9722 29.1483 20.9976V29.134Z" fill="white"/>
</svg>
