<svg width="80" height="80" viewBox="0 0 80 80" fill="none" xmlns="http://www.w3.org/2000/svg">
<mask id="path-1-inside-1_550_318" fill="white">
<path fill-rule="evenodd" clip-rule="evenodd" d="M11.0294 67.6043C4.23232 60.4683 0.30342 51.0612 0.0168527 41.1883C-0.277622 31.0427 3.29623 21.165 10.0133 13.5593C16.7304 5.95355 26.0876 1.18937 36.1864 0.233432C46.2393 -0.718162 54.5868 1.15747 62.6327 7.3784L63.4986 6.51197C66.0092 3.99997 70.0796 3.99997 72.59 6.51197L73.6056 7.52799C76.116 10.0399 76.116 14.1126 73.6056 16.6246L73.2207 17.0097C79.3698 25.1226 80.7089 34.0948 79.6921 44.0798C78.6638 54.1774 73.835 63.5053 66.1854 70.1712C58.5357 76.8371 48.6382 80.3416 38.501 79.9737C37.9941 79.9553 37.5981 79.5292 37.6165 79.0221C37.6349 78.515 38.0606 78.1187 38.5675 78.1371C48.2387 78.4881 57.6812 75.1447 64.9791 68.7853C72.277 62.4259 76.8838 53.5268 77.8648 43.8935C78.843 34.2882 77.5605 25.8959 71.909 18.322L27.7644 62.4923L13.6131 68.9752C12.4277 69.5182 11.2143 68.7088 11.0294 67.6043ZM11.3897 14.7762C17.7979 7.52018 26.7249 2.97505 36.3594 2.06306C45.9458 1.15563 53.7604 2.9114 61.3229 8.68902L17.6576 52.3796L11.631 65.5502C5.59435 58.845 2.11581 50.1956 1.85281 41.1349C1.57188 31.4558 4.98143 22.0323 11.3897 14.7762ZM20.178 53.7563L61.7896 12.1206L62.1833 12.9083C62.7154 13.9728 63.405 14.9393 64.2217 15.7793L22.6994 57.3257C21.7907 56.4755 21.0319 55.4647 20.4666 54.3337L20.178 53.7563ZM23.399 57.9252C24.1362 58.503 24.9521 58.9844 25.8285 59.3521L26.6586 59.7002L67.9835 18.3513C66.8461 17.8706 65.8029 17.2136 64.8881 16.4121L23.399 57.9252ZM63.0047 12.4973L62.474 11.4358L65.4469 8.46123C66.8815 7.02581 69.2073 7.02581 70.6419 8.46123L71.6573 9.47725C73.0919 10.9127 73.0919 13.24 71.6573 14.6753L68.6851 17.6493L68.3666 17.5157C66.037 16.5383 64.1346 14.7579 63.0047 12.4973ZM19.6245 54.7033L15.6163 63.4628L16.6877 64.5347L25.8272 60.3479L25.4735 60.1995C22.9413 59.1372 20.8735 57.2019 19.6453 54.7448L19.6245 54.7033Z"/>
</mask>
<path fill-rule="evenodd" clip-rule="evenodd" d="M11.0294 67.6043C4.23232 60.4683 0.30342 51.0612 0.0168527 41.1883C-0.277622 31.0427 3.29623 21.165 10.0133 13.5593C16.7304 5.95355 26.0876 1.18937 36.1864 0.233432C46.2393 -0.718162 54.5868 1.15747 62.6327 7.3784L63.4986 6.51197C66.0092 3.99997 70.0796 3.99997 72.59 6.51197L73.6056 7.52799C76.116 10.0399 76.116 14.1126 73.6056 16.6246L73.2207 17.0097C79.3698 25.1226 80.7089 34.0948 79.6921 44.0798C78.6638 54.1774 73.835 63.5053 66.1854 70.1712C58.5357 76.8371 48.6382 80.3416 38.501 79.9737C37.9941 79.9553 37.5981 79.5292 37.6165 79.0221C37.6349 78.515 38.0606 78.1187 38.5675 78.1371C48.2387 78.4881 57.6812 75.1447 64.9791 68.7853C72.277 62.4259 76.8838 53.5268 77.8648 43.8935C78.843 34.2882 77.5605 25.8959 71.909 18.322L27.7644 62.4923L13.6131 68.9752C12.4277 69.5182 11.2143 68.7088 11.0294 67.6043ZM11.3897 14.7762C17.7979 7.52018 26.7249 2.97505 36.3594 2.06306C45.9458 1.15563 53.7604 2.9114 61.3229 8.68902L17.6576 52.3796L11.631 65.5502C5.59435 58.845 2.11581 50.1956 1.85281 41.1349C1.57188 31.4558 4.98143 22.0323 11.3897 14.7762ZM20.178 53.7563L61.7896 12.1206L62.1833 12.9083C62.7154 13.9728 63.405 14.9393 64.2217 15.7793L22.6994 57.3257C21.7907 56.4755 21.0319 55.4647 20.4666 54.3337L20.178 53.7563ZM23.399 57.9252C24.1362 58.503 24.9521 58.9844 25.8285 59.3521L26.6586 59.7002L67.9835 18.3513C66.8461 17.8706 65.8029 17.2136 64.8881 16.4121L23.399 57.9252ZM63.0047 12.4973L62.474 11.4358L65.4469 8.46123C66.8815 7.02581 69.2073 7.02581 70.6419 8.46123L71.6573 9.47725C73.0919 10.9127 73.0919 13.24 71.6573 14.6753L68.6851 17.6493L68.3666 17.5157C66.037 16.5383 64.1346 14.7579 63.0047 12.4973ZM19.6245 54.7033L15.6163 63.4628L16.6877 64.5347L25.8272 60.3479L25.4735 60.1995C22.9413 59.1372 20.8735 57.2019 19.6453 54.7448L19.6245 54.7033Z" fill="#EFEFEF"/>
<path d="M11.0294 67.6043L13.002 67.2741L12.9007 66.6691L12.4776 66.2249L11.0294 67.6043ZM0.0168527 41.1883L-1.98231 41.2463L-1.98231 41.2463L0.0168527 41.1883ZM10.0133 13.5593L11.5124 14.8832L11.5124 14.8832L10.0133 13.5593ZM36.1864 0.233432L36.3749 2.22453L36.1864 0.233432ZM62.6327 7.3784L61.4094 8.96062L62.8025 10.0378L64.0473 8.7922L62.6327 7.3784ZM63.4986 6.51197L64.9133 7.92577L64.9133 7.92577L63.4986 6.51197ZM72.59 6.51197L71.1754 7.92574L71.1755 7.92584L72.59 6.51197ZM73.6056 7.52799L75.0202 6.11419L75.0201 6.11412L73.6056 7.52799ZM73.6056 16.6246L75.0202 18.0384L75.0202 18.0384L73.6056 16.6246ZM73.2207 17.0097L71.8061 15.5958L70.574 16.8287L71.6268 18.2177L73.2207 17.0097ZM79.6921 44.0798L81.6818 44.2824L81.6818 44.2824L79.6921 44.0798ZM66.1854 70.1712L67.4993 71.679L67.4994 71.679L66.1854 70.1712ZM38.501 79.9737L38.5735 77.975L38.5734 77.975L38.501 79.9737ZM37.6165 79.0221L39.6152 79.0949L39.6152 79.0945L37.6165 79.0221ZM38.5675 78.1371L38.64 76.1384L38.6399 76.1384L38.5675 78.1371ZM64.9791 68.7853L66.2931 70.2931L66.2931 70.2931L64.9791 68.7853ZM77.8648 43.8935L79.8545 44.0961L79.8545 44.0961L77.8648 43.8935ZM71.909 18.322L73.512 17.1259L72.1291 15.2726L70.4944 16.9082L71.909 18.322ZM27.7644 62.4923L28.5973 64.3106L28.9246 64.1607L29.179 63.9061L27.7644 62.4923ZM13.6131 68.9752L14.446 70.7935L14.4461 70.7935L13.6131 68.9752ZM11.3897 14.7762L12.8888 16.1001L12.8888 16.1001L11.3897 14.7762ZM36.3594 2.06306L36.5479 4.05416L36.5479 4.05416L36.3594 2.06306ZM61.3229 8.68902L62.7375 10.1028L64.3526 8.4868L62.537 7.09975L61.3229 8.68902ZM17.6576 52.3796L16.2429 50.9658L15.9886 51.2203L15.8389 51.5475L17.6576 52.3796ZM11.631 65.5502L10.1446 66.8884L12.1824 69.1519L13.4496 66.3824L11.631 65.5502ZM1.85281 41.1349L-0.146343 41.1929L-0.146343 41.1929L1.85281 41.1349ZM20.178 53.7563L18.7634 52.3425L17.7449 53.3616L18.389 54.6505L20.178 53.7563ZM61.7896 12.1206L63.5785 11.2265L62.3374 8.74328L60.3749 10.7068L61.7896 12.1206ZM62.1833 12.9083L60.3943 13.8025L60.3943 13.8026L62.1833 12.9083ZM64.2217 15.7793L65.6363 17.1931L67.0299 15.7987L65.6557 14.3852L64.2217 15.7793ZM22.6994 57.3257L21.333 58.7862L22.7461 60.1082L24.114 58.7395L22.6994 57.3257ZM20.4666 54.3337L18.6776 55.2278L18.6776 55.2279L20.4666 54.3337ZM23.399 57.9252L21.9844 56.5114L20.3893 58.1073L22.1652 59.4993L23.399 57.9252ZM25.8285 59.3521L25.0549 61.1964L25.0549 61.1964L25.8285 59.3521ZM26.6586 59.7002L25.8849 61.5445L27.1236 62.0641L28.0732 61.114L26.6586 59.7002ZM67.9835 18.3513L69.3981 19.7651L71.4969 17.6651L68.7622 16.5091L67.9835 18.3513ZM64.8881 16.4121L66.2061 14.9078L64.7974 13.6736L63.4735 14.9983L64.8881 16.4121ZM63.0047 12.4973L64.7936 11.6031L64.7936 11.6031L63.0047 12.4973ZM62.474 11.4358L61.0594 10.022L60.0408 11.0412L60.6851 12.3301L62.474 11.4358ZM65.4469 8.46123L64.0322 7.04742L64.0322 7.04742L65.4469 8.46123ZM70.6419 8.46123L69.2273 9.87503L69.2273 9.87503L70.6419 8.46123ZM71.6573 9.47725L73.072 8.06345L73.0719 8.06345L71.6573 9.47725ZM71.6573 14.6753L70.2428 13.2614L70.2427 13.2615L71.6573 14.6753ZM68.6851 17.6493L67.9114 19.4936L69.1502 20.0132L70.0998 19.0631L68.6851 17.6493ZM68.3666 17.5157L67.5929 19.36L67.5929 19.36L68.3666 17.5157ZM19.6245 54.7033L21.4135 53.8092L19.545 50.0703L17.8059 53.8711L19.6245 54.7033ZM15.6163 63.4628L13.7977 62.6306L13.2196 63.8939L14.2017 64.8766L15.6163 63.4628ZM16.6877 64.5347L15.273 65.9485L16.2562 66.9323L17.5206 66.353L16.6877 64.5347ZM25.8272 60.3479L26.6601 62.1662L30.8045 60.2676L26.601 58.5037L25.8272 60.3479ZM25.4735 60.1995L26.2474 58.3553L26.2472 58.3552L25.4735 60.1995ZM19.6453 54.7448L17.8562 55.6389L17.8563 55.639L19.6453 54.7448ZM12.4776 66.2249C6.02071 59.446 2.28825 50.5095 2.01601 41.1303L-1.98231 41.2463C-1.68141 51.6129 2.44393 61.4905 9.58124 68.9837L12.4776 66.2249ZM2.01601 41.1303C1.73626 31.492 5.13144 22.1083 11.5124 14.8832L8.51428 12.2354C1.46102 20.2217 -2.2915 30.5935 -1.98231 41.2463L2.01601 41.1303ZM11.5124 14.8832C17.8933 7.65811 26.782 3.13258 36.3749 2.22453L35.998 -1.75767C25.3932 -0.753837 15.5675 4.249 8.51427 12.2354L11.5124 14.8832ZM36.3749 2.22453C46.0058 1.31289 53.8269 3.09796 61.4094 8.96062L63.8561 5.79617C55.3468 -0.783028 46.4729 -2.74921 35.998 -1.75767L36.3749 2.22453ZM64.0473 8.7922L64.9133 7.92577L62.084 5.09816L61.2181 5.96459L64.0473 8.7922ZM64.9133 7.92577C66.6427 6.19536 69.4461 6.19539 71.1754 7.92574L74.0047 5.09819C70.7131 1.80455 65.3757 1.80459 62.084 5.09816L64.9133 7.92577ZM71.1755 7.92584L72.191 8.94186L75.0201 6.11412L74.0046 5.0981L71.1755 7.92584ZM72.1909 8.9418C73.9209 10.6727 73.9209 13.4798 72.1909 15.2109L75.0202 18.0384C78.3111 14.7455 78.3111 9.40706 75.0202 6.11419L72.1909 8.9418ZM72.1909 15.2108L71.8061 15.5958L74.6354 18.4235L75.0202 18.0384L72.1909 15.2108ZM71.6268 18.2177C77.3741 25.8007 78.6867 34.2112 77.7024 43.8772L81.6818 44.2824C82.7311 33.9785 81.3654 24.4445 74.8147 15.8016L71.6268 18.2177ZM77.7024 43.8772C76.7255 53.4699 72.1382 62.3311 64.8715 68.6633L67.4994 71.679C75.5319 64.6795 80.6021 54.8849 81.6818 44.2824L77.7024 43.8772ZM64.8715 68.6633C57.6047 74.9955 48.2029 78.3244 38.5735 77.975L38.4285 81.9724C49.0735 82.3587 59.4667 78.6786 67.4993 71.679L64.8715 68.6633ZM38.5734 77.975C39.1714 77.9967 39.6369 78.499 39.6152 79.0949L35.6178 78.9494C35.5592 80.5595 36.8167 81.914 38.4285 81.9724L38.5734 77.975ZM39.6152 79.0945C39.5936 79.6901 39.0932 80.1575 38.495 80.1358L38.6399 76.1384C37.0281 76.08 35.6761 77.3399 35.6178 78.9497L39.6152 79.0945ZM38.4949 80.1358C48.674 80.5053 58.6122 76.9862 66.2931 70.2931L63.6652 67.2775C56.7502 73.3032 47.8034 76.471 38.64 76.1384L38.4949 80.1358ZM66.2931 70.2931C73.9739 63.6001 78.8221 54.2343 79.8545 44.0961L75.8751 43.6909C74.9455 52.8193 70.5802 61.2517 63.6652 67.2775L66.2931 70.2931ZM79.8545 44.0961C80.8648 34.1758 79.5573 25.2277 73.512 17.1259L70.3061 19.5181C75.5636 26.564 76.8212 34.4005 75.8751 43.6909L79.8545 44.0961ZM70.4944 16.9082L26.3497 61.0785L29.179 63.9061L73.3237 19.7358L70.4944 16.9082ZM26.9314 60.674L12.7801 67.157L14.4461 70.7935L28.5973 64.3106L26.9314 60.674ZM12.7801 67.1569C12.7792 67.1574 12.8075 67.1462 12.8536 67.1489C12.8949 67.1514 12.925 67.1634 12.942 67.1732C12.9573 67.1819 12.967 67.1914 12.9747 67.2022C12.983 67.214 12.9958 67.2374 13.002 67.2741L9.05687 67.9345C9.4345 70.1905 11.9316 71.9453 14.446 70.7935L12.7801 67.1569ZM12.8888 16.1001C18.9608 9.22474 27.4193 4.91826 36.5479 4.05416L36.171 0.0719616C26.0305 1.03184 16.635 5.81563 9.89063 13.4523L12.8888 16.1001ZM36.5479 4.05416C45.7175 3.18618 53.0093 4.85447 60.1087 10.2783L62.537 7.09975C54.5115 0.968331 46.1741 -0.874921 36.171 0.0719617L36.5479 4.05416ZM59.9082 7.27522L16.2429 50.9658L19.0722 53.7934L62.7375 10.1028L59.9082 7.27522ZM15.8389 51.5475L9.81231 64.718L13.4496 66.3824L19.4762 53.2118L15.8389 51.5475ZM13.1173 64.2121C7.39742 57.8586 4.10118 49.6627 3.85197 41.0769L-0.146343 41.1929C0.130434 50.7285 3.79128 59.8314 10.1446 66.8884L13.1173 64.2121ZM3.85197 41.0769C3.58576 31.9051 6.81664 22.9756 12.8888 16.1001L9.89063 13.4523C3.14623 21.0889 -0.442005 31.0066 -0.146343 41.1929L3.85197 41.0769ZM21.5926 55.1701L63.2042 13.5345L60.3749 10.7068L18.7634 52.3425L21.5926 55.1701ZM60.0006 13.0148L60.3943 13.8025L63.9723 12.0141L63.5785 11.2265L60.0006 13.0148ZM60.3943 13.8026C61.019 15.0523 61.8287 16.1871 62.7877 17.1735L65.6557 14.3852C64.9812 13.6914 64.4117 12.8933 63.9722 12.0141L60.3943 13.8026ZM62.8071 14.3655L21.2848 55.9119L24.114 58.7395L65.6363 17.1931L62.8071 14.3655ZM24.0658 55.8652C23.329 55.1759 22.7139 54.3564 22.2555 53.4394L18.6776 55.2279C19.3499 56.5729 20.2523 57.7751 21.333 58.7862L24.0658 55.8652ZM22.2556 53.4395L21.967 52.8622L18.389 54.6505L18.6776 55.2278L22.2556 53.4395ZM22.1652 59.4993C23.0419 60.1864 24.0124 60.759 25.0549 61.1964L26.6022 57.5078C25.8919 57.2098 25.2305 56.8196 24.6328 56.3511L22.1652 59.4993ZM25.0549 61.1964L25.8849 61.5445L27.4322 57.8559L26.6022 57.5078L25.0549 61.1964ZM28.0732 61.114L69.3981 19.7651L66.5689 16.9375L25.2439 58.2864L28.0732 61.114ZM68.7622 16.5091C67.8229 16.1121 66.9615 15.5696 66.2061 14.9078L63.5702 17.9164C64.6443 18.8575 65.8693 19.629 67.2048 20.1935L68.7622 16.5091ZM63.4735 14.9983L21.9844 56.5114L24.8136 59.339L66.3028 17.8259L63.4735 14.9983ZM64.7936 11.6031L64.263 10.5415L60.6851 12.3301L61.2157 13.3916L64.7936 11.6031ZM63.8887 12.8496L66.8615 9.87503L64.0322 7.04742L61.0594 10.022L63.8887 12.8496ZM66.8615 9.87503C67.5149 9.22121 68.5738 9.22121 69.2273 9.87503L72.0565 7.04742C69.8408 4.83042 66.248 4.83042 64.0322 7.04742L66.8615 9.87503ZM69.2273 9.87503L70.2427 10.8911L73.0719 8.06345L72.0565 7.04742L69.2273 9.87503ZM70.2427 10.8911C70.8968 11.5455 70.8967 12.6071 70.2428 13.2614L73.0719 16.0891C75.2871 13.8728 75.287 10.2798 73.072 8.06345L70.2427 10.8911ZM70.2427 13.2615L67.2705 16.2355L70.0998 19.0631L73.072 16.0891L70.2427 13.2615ZM69.4588 15.805L69.1403 15.6714L67.5929 19.36L67.9114 19.4936L69.4588 15.805ZM69.1404 15.6714C67.252 14.8792 65.7098 13.4359 64.7936 11.6031L61.2157 13.3915C62.5595 16.0799 64.822 18.1975 67.5929 19.36L69.1404 15.6714ZM17.8059 53.8711L13.7977 62.6306L17.4349 64.2949L21.4432 55.5354L17.8059 53.8711ZM14.2017 64.8766L15.273 65.9485L18.1023 63.1209L17.0309 62.049L14.2017 64.8766ZM17.5206 66.353L26.6601 62.1662L24.9942 58.5296L15.8547 62.7165L17.5206 66.353ZM26.601 58.5037L26.2474 58.3553L24.6996 62.0437L25.0533 62.1921L26.601 58.5037ZM26.2472 58.3552C24.1563 57.4781 22.4486 55.88 21.4342 53.8506L17.8563 55.639C19.2983 58.5239 21.7262 60.7964 24.6998 62.0438L26.2472 58.3552ZM21.4343 53.8507L21.4135 53.8092L17.8355 55.5973L17.8562 55.6389L21.4343 53.8507Z" fill="#EFEFEF" mask="url(#path-1-inside-1_550_318)"/>
</svg>
