<svg width="68" height="68" viewBox="0 0 68 68" fill="none" xmlns="http://www.w3.org/2000/svg">
<path fill-rule="evenodd" clip-rule="evenodd" d="M1.95014 66.2938C2.00969 66.3187 2.07311 66.338 2.13976 66.3507L8.927 67.6435C21.8005 70.0955 33.0736 59.5174 30.5963 47.6564L66.1556 14.4887C68.6148 12.195 68.6148 8.47605 66.1556 6.18239L64.4528 4.59404C61.9937 2.30029 58.0067 2.30029 55.5476 4.59404L23.9915 34.0277L22.4409 31.0708C15.3264 17.5046 25.9154 1.67812 42.1067 1.67812C42.6035 1.67812 43.0062 1.30247 43.0062 0.839065C43.0062 0.375666 42.6035 0 42.1067 0C24.5848 0 13.1256 17.1271 20.8248 31.8083L22.4077 34.8265C22.4877 34.9792 22.6108 35.099 22.7566 35.1795L7.1142 49.7699L0.169621 63.9176C-0.431741 65.1427 0.661324 66.4008 1.95014 66.2938ZM29.0231 49.1238L17.7223 59.6645L4.86213 65.1565L9.28701 65.9993C20.4792 68.131 30.33 59.3422 29.0231 49.1238ZM9.64459 50.9695L53.3681 10.1868L54.0053 11.375C54.5205 12.3361 55.1868 13.2097 55.975 13.9707L12.347 54.6644C11.4577 53.8884 10.7153 52.966 10.1618 51.934L9.64459 50.9695ZM13.0322 55.212C13.7547 55.7402 14.5547 56.1803 15.4141 56.5164L16.7294 57.0308L60.1533 16.5276L59.7142 16.3558C58.5773 15.9112 57.536 15.2992 56.6256 14.5505L13.0322 55.212ZM54.8097 10.9996L54.0385 9.56138L57.4558 6.37394C58.861 5.06324 61.1394 5.06324 62.5446 6.37394L64.2474 7.9623C65.6526 9.273 65.6526 11.398 64.2474 12.7087L60.8405 15.8865L60.062 15.582C57.78 14.6896 55.9167 13.0638 54.8097 10.9996ZM9.08506 51.8016L4.74033 60.6528L6.05459 61.8787L15.9709 57.644L15.0662 57.2902C12.5858 56.3202 10.5604 54.553 9.35727 52.3094L9.08506 51.8016Z" fill="#EFEFEF"/>
</svg>
