<svg width="41" height="43" viewBox="0 0 41 43" fill="none" xmlns="http://www.w3.org/2000/svg">
<path fill-rule="evenodd" clip-rule="evenodd" d="M36.3276 21.0255C35.5045 20.492 34.6422 20.0477 33.7449 19.6879C28.9153 17.7518 23.5278 18.4581 18.7368 20.0188C13.9109 21.5909 9.40143 24.1233 6.13188 26.2284C4.48873 27.2864 3.13992 28.2487 2.19871 28.9491C1.82014 29.2308 1.50692 29.4705 1.26638 29.6576C-0.394621 27.7399 -0.496709 24.7776 1.46609 22.903L23.8404 1.53418C26.628 -1.12814 31.4291 0.381982 32.3367 4.20652L36.3276 21.0255ZM38.1208 28.5825C36.4255 25.838 34.3851 24.254 32.2565 23.4007C28.6874 21.9699 24.3793 22.3876 19.9757 23.8221C15.607 25.2453 11.4228 27.5792 8.2973 29.5916C7.02596 30.4101 5.94215 31.1674 5.10685 31.7753L33.5369 42.3983C37.2889 43.8003 40.9848 40.6525 40.0773 36.828L38.1208 28.5825Z" fill="url(#paint0_linear_512_326)"/>
<defs>
<linearGradient id="paint0_linear_512_326" x1="50.0869" y1="-11.2886" x2="59.3636" y2="54.767" gradientUnits="userSpaceOnUse">
<stop stop-color="#DAA520"/>
<stop offset="0.935832" stop-color="#FFE39E"/>
</linearGradient>
</defs>
</svg>
