<svg width="26" height="30" viewBox="0 0 26 30" fill="none" xmlns="http://www.w3.org/2000/svg">
<path fill-rule="evenodd" clip-rule="evenodd" d="M17.3563 4.78931C18.4499 3.52182 19.1871 1.75647 18.9854 0C17.4094 0.06 15.5028 1.00672 14.3728 2.27271C13.3581 3.39619 12.4723 5.19135 12.7104 6.91333C14.4684 7.04382 16.2627 6.05828 17.3563 4.78931ZM21.2985 15.9375C21.3425 20.4779 25.4545 21.9883 25.5 22.0078C25.4666 22.1143 24.8432 24.1599 23.334 26.2749C22.0281 28.1019 20.6736 29.9214 18.5394 29.9604C16.4432 29.9979 15.7682 28.7695 13.3702 28.7695C10.9737 28.7695 10.2244 29.9213 8.2404 29.9978C6.18059 30.0713 4.61071 28.0212 3.29565 26.2002C0.604852 22.4757 -1.4504 15.6751 1.31016 11.0852C2.68135 8.80674 5.13097 7.36168 7.79142 7.32568C9.81331 7.28818 11.723 8.62939 12.9591 8.62939C14.1953 8.62939 16.516 7.01691 18.955 7.25391C19.9758 7.29441 22.8426 7.64828 24.6824 10.2297C24.5338 10.3182 21.2621 12.1426 21.2985 15.9375Z" fill="white"/>
</svg>
