<svg width="86" height="89" viewBox="0 0 86 89" fill="none" xmlns="http://www.w3.org/2000/svg">
<path d="M65.905 40.2278C64.9094 28.9398 55.7635 19.8389 44.6291 19.058C43.5367 18.9807 42.4668 18.9807 41.3707 19.058C30.2363 19.8389 21.0894 28.9398 20.0947 40.2278C19.4522 47.5244 22.101 54.5536 27.3602 59.5141C30.1856 62.1776 31.8058 65.9113 31.8058 69.7586V78.8442C31.8058 81.7693 33.9718 84.1904 36.7587 84.5369C37.6201 86.8969 40.0106 89 42.9994 89C45.9882 89 48.3797 86.8969 49.2401 84.536C52.0279 84.1894 54.193 81.7684 54.193 78.8433V69.7577C54.193 65.9113 55.8142 62.1776 58.6387 59.5131C63.8997 54.5536 66.5485 47.5244 65.905 40.2278ZM50.4358 71.1906V72.6303H35.563V71.1906H50.4358ZM38.6608 47.2446H36.8198C35.8053 47.2446 34.9797 46.4055 34.9797 45.3744C34.9797 44.3434 35.8053 43.5042 36.8198 43.5042C37.8352 43.5042 38.6608 44.3434 38.6608 45.3744V47.2446ZM41.4787 50.1086H44.5201V68.3266H41.4787V50.1086ZM35.563 76.9339V75.4943H50.4358V76.9339H35.563ZM42.9994 85.1813C41.9202 85.1813 40.9931 84.4539 40.5159 83.6777H45.482C45.0067 84.4539 44.0787 85.1813 42.9994 85.1813ZM48.5516 80.7602H47.7072C47.5606 80.7602 47.4188 80.7812 47.2817 80.8137H38.72C38.5828 80.7812 38.441 80.7602 38.2945 80.7602H37.4482C36.7522 80.7602 36.1501 80.3707 35.8232 79.7979H50.1756C49.8497 80.3698 49.2476 80.7602 48.5516 80.7602ZM56.0838 56.714C52.8451 59.767 50.8698 63.938 50.5109 68.3266H47.3389V50.1086H49.18C51.748 50.1086 53.8379 47.9845 53.8379 45.3744C53.8379 42.7644 51.748 40.6402 49.18 40.6402C46.611 40.6402 44.5211 42.7644 44.5211 45.3744V47.2446H41.4796V45.3744C41.4796 42.7634 39.3897 40.6402 36.8207 40.6402C34.2527 40.6402 32.1628 42.7644 32.1628 45.3744C32.1628 47.9845 34.2527 50.1086 36.8207 50.1086H38.6617V68.3266H35.4897C35.1309 63.937 33.1556 59.767 29.9169 56.714C25.5154 52.5641 23.2996 46.6785 23.8378 40.5677C24.67 31.1298 32.3187 23.5211 41.6299 22.8671C42.0911 22.8347 42.5476 22.8251 43.0003 22.8251C43.454 22.8251 43.9105 22.8347 44.3708 22.8671C53.682 23.5211 61.3316 31.1298 62.1629 40.5686C62.7011 46.6785 60.4863 52.5641 56.0838 56.714ZM47.3389 47.2446V45.3744C47.3389 44.3424 48.1646 43.5042 49.18 43.5042C50.1944 43.5042 51.02 44.3434 51.02 45.3744C51.02 46.4055 50.1944 47.2446 49.18 47.2446H47.3389Z" fill="#EFEFEF"/>
<path d="M43.2517 10.7936C44.1992 10.7936 44.975 10.032 44.975 9.10187V1.69173C44.9739 0.7616 44.1992 0 43.2517 0C42.3041 0 41.5283 0.7616 41.5283 1.69173V9.10293C41.5283 10.032 42.3041 10.7936 43.2517 10.7936Z" fill="#EFEFEF"/>
<path d="M69.6783 8.58878C68.9123 8.04158 67.8289 8.21011 67.2715 8.96318L62.8339 14.9589C62.2775 15.712 62.4481 16.7744 63.2153 17.3216C63.9824 17.8688 65.0647 17.7002 65.6221 16.9472L70.0597 10.9514C70.6161 10.1994 70.4455 9.13598 69.6783 8.58878Z" fill="#EFEFEF"/>
<path d="M77.6298 35.2086L84.81 32.9184C85.7107 32.6304 86.2084 31.6715 85.9161 30.7872C85.6227 29.903 84.6459 29.4144 83.7451 29.7014L76.5649 31.9915C75.6641 32.2784 75.1665 33.2384 75.4587 34.1227C75.751 35.007 76.7279 35.4955 77.6298 35.2086Z" fill="#EFEFEF"/>
<path d="M9.59065 31.5232L2.41044 29.2331C1.50966 28.9462 0.532812 29.4347 0.239432 30.319C-0.053948 31.2032 0.444798 32.1622 1.34558 32.4502L8.52579 34.7403C9.42657 35.0272 10.4045 34.5387 10.6968 33.6544C10.9891 32.7691 10.4914 31.8102 9.59065 31.5232Z" fill="#EFEFEF"/>
<path d="M20.7842 16.6581C21.3416 17.4101 22.4239 17.5787 23.191 17.0325C23.9582 16.4853 24.1287 15.4229 23.5724 14.6699L19.1348 8.67414C18.5773 7.92108 17.4951 7.75361 16.728 8.29974C15.9608 8.84694 15.7902 9.90934 16.3466 10.6624L20.7842 16.6581Z" fill="#EFEFEF"/>
</svg>
