<svg width="46" height="70" viewBox="0 0 46 70" fill="none" xmlns="http://www.w3.org/2000/svg">
<path d="M45.905 21.2278C44.9094 9.93979 35.7635 0.838916 24.6291 0.0579962C23.5367 -0.0193321 22.4668 -0.0193321 21.3707 0.0579962C10.2363 0.838916 1.08942 9.93979 0.0947043 21.2278C-0.547773 28.5244 2.10104 35.5536 7.36015 40.5141C10.1856 43.1776 11.8058 46.9113 11.8058 50.7586V59.8442C11.8058 62.7693 13.9718 65.1904 16.7587 65.5369C17.6201 67.8969 20.0106 70 22.9994 70C25.9882 70 28.3797 67.8969 29.2401 65.536C32.0279 65.1894 34.193 62.7684 34.193 59.8433V50.7577C34.193 46.9113 35.8142 43.1776 38.6387 40.5131C43.8997 35.5536 46.5485 28.5244 45.905 21.2278ZM30.4358 52.1906V53.6303H15.563V52.1906H30.4358ZM18.6608 28.2446H16.8198C15.8053 28.2446 14.9797 27.4055 14.9797 26.3744C14.9797 25.3434 15.8053 24.5042 16.8198 24.5042C17.8352 24.5042 18.6608 25.3434 18.6608 26.3744V28.2446ZM21.4787 31.1086H24.5201V49.3266H21.4787V31.1086ZM15.563 57.9339V56.4943H30.4358V57.9339H15.563ZM22.9994 66.1813C21.9202 66.1813 20.9931 65.4539 20.5159 64.6777H25.482C25.0067 65.4539 24.0787 66.1813 22.9994 66.1813ZM28.5516 61.7602H27.7072C27.5606 61.7602 27.4188 61.7812 27.2817 61.8137H18.72C18.5828 61.7812 18.441 61.7602 18.2945 61.7602H17.4482C16.7522 61.7602 16.1501 61.3707 15.8232 60.7979H30.1756C29.8497 61.3698 29.2476 61.7602 28.5516 61.7602ZM36.0838 37.714C32.8451 40.767 30.8698 44.938 30.5109 49.3266H27.3389V31.1086H29.18C31.748 31.1086 33.8379 28.9845 33.8379 26.3744C33.8379 23.7644 31.748 21.6402 29.18 21.6402C26.611 21.6402 24.5211 23.7644 24.5211 26.3744V28.2446H21.4796V26.3744C21.4796 23.7634 19.3897 21.6402 16.8207 21.6402C14.2527 21.6402 12.1628 23.7644 12.1628 26.3744C12.1628 28.9845 14.2527 31.1086 16.8207 31.1086H18.6617V49.3266H15.4897C15.1309 44.937 13.1556 40.767 9.91691 37.714C5.51537 33.5641 3.29958 27.6785 3.83779 21.5677C4.67001 12.1298 12.3187 4.52108 21.6299 3.86713C22.0911 3.83467 22.5476 3.82513 23.0003 3.82513C23.454 3.82513 23.9105 3.83467 24.3708 3.86713C33.682 4.52108 41.3316 12.1298 42.1629 21.5686C42.7011 27.6785 40.4863 33.5641 36.0838 37.714ZM27.3389 28.2446V26.3744C27.3389 25.3424 28.1646 24.5042 29.18 24.5042C30.1944 24.5042 31.02 25.3434 31.02 26.3744C31.02 27.4055 30.1944 28.2446 29.18 28.2446H27.3389Z" fill="#EFEFEF"/>
</svg>
