<svg width="42" height="66" viewBox="0 0 42 66" fill="none" xmlns="http://www.w3.org/2000/svg">
<path d="M37.821 29.8318C37.0689 21.4609 30.1603 14.712 21.7497 14.1329C20.9245 14.0755 20.1164 14.0755 19.2883 14.1329C10.8777 14.712 3.96842 21.4609 3.21704 29.8318C2.73173 35.2427 4.73258 40.4554 8.70517 44.134C10.8394 46.1092 12.0633 48.878 12.0633 51.7311V58.4687C12.0633 60.6379 13.6995 62.4333 15.8046 62.6903C16.4552 64.4403 18.261 66 20.5187 66C22.7763 66 24.5828 64.4403 25.2327 62.6895C27.3385 62.4326 28.974 60.6372 28.974 58.468V51.7304C28.974 48.878 30.1986 46.1092 32.3321 44.1333C36.3061 40.4554 38.307 35.2427 37.821 29.8318ZM26.1359 52.793V53.8606H14.9014V52.793H26.1359ZM17.2414 35.0353H15.8507C15.0845 35.0353 14.4608 34.413 14.4608 33.6484C14.4608 32.8838 15.0845 32.2615 15.8507 32.2615C16.6177 32.2615 17.2414 32.8838 17.2414 33.6484V35.0353ZM19.3699 37.1592H21.6674V50.6691H19.3699V37.1592ZM14.9014 57.0521V55.9845H26.1359V57.0521H14.9014ZM20.5187 63.1681C19.7034 63.1681 19.0031 62.6287 18.6427 62.0531H22.3939C22.0349 62.6287 21.3339 63.1681 20.5187 63.1681ZM24.7126 59.8896H24.0748C23.9641 59.8896 23.8569 59.9052 23.7533 59.9292H17.2861C17.1825 59.9052 17.0754 59.8896 16.9647 59.8896H16.3254C15.7996 59.8896 15.3448 59.6007 15.0979 59.176H25.9394C25.6932 59.6 25.2384 59.8896 24.7126 59.8896ZM30.4022 42.0575C27.9558 44.3216 26.4637 47.4147 26.1927 50.6691H23.7966V37.1592H25.1873C27.1271 37.1592 28.7058 35.584 28.7058 33.6484C28.7058 31.7129 27.1271 30.1377 25.1873 30.1377C23.2468 30.1377 21.6681 31.7129 21.6681 33.6484V35.0353H19.3707V33.6484C19.3707 31.7122 17.792 30.1377 15.8514 30.1377C13.9116 30.1377 12.3329 31.7129 12.3329 33.6484C12.3329 35.584 13.9116 37.1592 15.8514 37.1592H17.2421V50.6691H14.8461C14.575 47.4139 13.0829 44.3216 10.6365 42.0575C7.31168 38.98 5.63792 34.6155 6.04448 30.0838C6.67311 23.085 12.4507 17.4426 19.4842 16.9576C19.8325 16.9335 20.1774 16.9265 20.5194 16.9265C20.8621 16.9265 21.2069 16.9335 21.5545 16.9576C28.588 17.4426 34.3663 23.085 34.9942 30.0846C35.4008 34.6155 33.7278 38.98 30.4022 42.0575ZM23.7966 35.0353V33.6484C23.7966 32.8831 24.4203 32.2615 25.1873 32.2615C25.9536 32.2615 26.5772 32.8838 26.5772 33.6484C26.5772 34.413 25.9536 35.0353 25.1873 35.0353H23.7966Z" fill="#EFEFEF"/>
<path d="M20.709 8.00424C21.4247 8.00424 22.0108 7.43946 22.0108 6.7497V1.25454C22.0099 0.564782 21.4247 0 20.709 0C19.9933 0 19.4072 0.564782 19.4072 1.25454V6.75049C19.4072 7.43946 19.9933 8.00424 20.709 8.00424Z" fill="#EFEFEF"/>
<path d="M40.6711 6.36922C40.0924 5.96343 39.2741 6.08841 38.853 6.64686L35.5009 11.0931C35.0807 11.6516 35.2096 12.4394 35.789 12.8452C36.3685 13.251 37.186 13.126 37.6071 12.5676L40.9592 8.12131C41.3794 7.56365 41.2505 6.77501 40.6711 6.36922Z" fill="#EFEFEF"/>
<path d="M3.73779 12.3533C4.15885 12.9109 4.97635 13.0359 5.55582 12.6309C6.1353 12.2251 6.26416 11.4373 5.84392 10.8788L2.49184 6.43253C2.07078 5.87408 1.25328 5.74989 0.673805 6.15489C0.0943325 6.56068 -0.0345303 7.34852 0.385711 7.90698L3.73779 12.3533Z" fill="#EFEFEF"/>
</svg>
