<svg width="50" height="50" viewBox="0 0 50 50" fill="none" xmlns="http://www.w3.org/2000/svg">
<path fill-rule="evenodd" clip-rule="evenodd" d="M36.7149 26.3432C35.9426 25.8171 35.1297 25.3801 34.2794 25.0282C29.6301 23.1041 24.4186 23.9706 19.8268 25.6724C15.1899 27.3909 10.8412 30.0877 7.68771 32.315C6.10198 33.4351 4.79863 34.4506 3.88889 35.1885C3.54395 35.4683 3.25507 35.7086 3.02829 35.9001C1.45029 34.0282 1.41287 31.0586 3.33501 29.0783L24.9149 6.84454C27.7185 3.95609 32.4923 5.31343 33.2772 9.22214L36.7149 26.3432ZM38.2646 34.0612C36.6921 31.1602 34.7599 29.554 32.7665 28.729C29.4903 27.3732 25.4484 27.8638 21.2247 29.4292C17.0461 30.9778 13.0174 33.4583 9.99718 35.5915C8.71549 36.4968 7.6296 37.3294 6.8077 37.9848L33.2027 48.1203C36.8689 49.5281 40.7022 46.2009 39.9173 42.2922L38.2646 34.0612Z" fill="#EEEEEE"/>
</svg>
