<svg width="496" height="336" viewBox="0 0 496 336" fill="none" xmlns="http://www.w3.org/2000/svg">
<g style="mix-blend-mode:lighten">
<ellipse cx="45" cy="45" rx="45" ry="45" transform="matrix(-0.460946 -0.887428 0.903984 -0.427567 61.5605 285.046)" fill="url(#paint0_linear_575_303)" fill-opacity="0.3"/>
</g>
<g style="mix-blend-mode:lighten">
<ellipse cx="22" cy="22" rx="22" ry="22" transform="matrix(-0.460946 -0.887428 0.903984 -0.427567 20.2812 167.86)" fill="url(#paint1_linear_575_303)" fill-opacity="0.4"/>
</g>
<g style="mix-blend-mode:soft-light" filter="url(#filter0_b_575_303)">
<mask id="path-3-outside-1_575_303" maskUnits="userSpaceOnUse" x="64.2502" y="8.43423" width="434.269" height="313.051" fill="black">
<rect fill="white" x="64.2502" y="8.43423" width="434.269" height="313.051"/>
<path d="M106.039 83.3868C127.279 43.9262 223.055 48.6587 319.96 93.9573C416.865 139.256 478.203 207.967 456.962 247.427C435.722 286.888 339.946 282.155 243.041 236.857C146.136 191.558 84.7981 122.847 106.039 83.3868ZM441.967 240.418C461.392 204.33 405.296 141.491 316.673 100.063C228.05 58.6361 140.459 54.308 121.034 90.3963C101.608 126.485 157.705 189.323 246.328 230.751C334.951 272.178 422.542 276.506 441.967 240.418Z"/>
</mask>
<path d="M106.039 83.3868C127.279 43.9262 223.055 48.6587 319.96 93.9573C416.865 139.256 478.203 207.967 456.962 247.427C435.722 286.888 339.946 282.155 243.041 236.857C146.136 191.558 84.7981 122.847 106.039 83.3868ZM441.967 240.418C461.392 204.33 405.296 141.491 316.673 100.063C228.05 58.6361 140.459 54.308 121.034 90.3963C101.608 126.485 157.705 189.323 246.328 230.751C334.951 272.178 422.542 276.506 441.967 240.418Z" fill="url(#paint2_linear_575_303)" fill-opacity="0.75"/>
<path d="M106.039 83.3868C127.279 43.9262 223.055 48.6587 319.96 93.9573C416.865 139.256 478.203 207.967 456.962 247.427C435.722 286.888 339.946 282.155 243.041 236.857C146.136 191.558 84.7981 122.847 106.039 83.3868ZM441.967 240.418C461.392 204.33 405.296 141.491 316.673 100.063C228.05 58.6361 140.459 54.308 121.034 90.3963C101.608 126.485 157.705 189.323 246.328 230.751C334.951 272.178 422.542 276.506 441.967 240.418Z" stroke="url(#paint3_linear_575_303)" stroke-opacity="0.75" stroke-width="4" mask="url(#path-3-outside-1_575_303)"/>
</g>
<g style="mix-blend-mode:lighten">
<ellipse cx="127.5" cy="127.5" rx="127.5" ry="127.5" transform="matrix(-0.460946 -0.887428 0.903984 -0.427567 232.305 335.667)" fill="url(#paint4_linear_575_303)" fill-opacity="0.95"/>
</g>
<defs>
<filter id="filter0_b_575_303" x="95.79" y="50.6746" width="371.42" height="229.465" filterUnits="userSpaceOnUse" color-interpolation-filters="sRGB">
<feFlood flood-opacity="0" result="BackgroundImageFix"/>
<feGaussianBlur in="BackgroundImageFix" stdDeviation="2"/>
<feComposite in2="SourceAlpha" operator="in" result="effect1_backgroundBlur_575_303"/>
<feBlend mode="normal" in="SourceGraphic" in2="effect1_backgroundBlur_575_303" result="shape"/>
</filter>
<linearGradient id="paint0_linear_575_303" x1="9.23416" y1="-10.3167" x2="84.9507" y2="105.937" gradientUnits="userSpaceOnUse">
<stop stop-color="#6A9FFF"/>
<stop offset="1" stop-color="#BDD5FF"/>
</linearGradient>
<linearGradient id="paint1_linear_575_303" x1="4.51448" y1="-5.04374" x2="41.5314" y2="51.7912" gradientUnits="userSpaceOnUse">
<stop stop-color="#6A9FFF"/>
<stop offset="1" stop-color="#BDD5FF"/>
</linearGradient>
<linearGradient id="paint2_linear_575_303" x1="226" y1="268.5" x2="309.777" y2="42.1986" gradientUnits="userSpaceOnUse">
<stop stop-color="#8CB5FF"/>
<stop offset="1" stop-color="#8CB5FF" stop-opacity="0.5"/>
</linearGradient>
<linearGradient id="paint3_linear_575_303" x1="100.832" y1="113.49" x2="469.174" y2="253.649" gradientUnits="userSpaceOnUse">
<stop stop-color="#8EB4F9"/>
<stop offset="1" stop-color="#8EB4F9" stop-opacity="0"/>
</linearGradient>
<linearGradient id="paint4_linear_575_303" x1="26.1635" y1="-29.2307" x2="240.694" y2="300.154" gradientUnits="userSpaceOnUse">
<stop stop-color="#6A9FFF"/>
<stop offset="1" stop-color="#BDD5FF"/>
</linearGradient>
</defs>
</svg>
