<svg width="77" height="77" viewBox="0 0 77 77" fill="none" xmlns="http://www.w3.org/2000/svg">
<path d="M76.3367 29.0107C76.1069 28.889 70.6487 26.0475 63.9833 26.0475C59.4379 26.0475 55.4414 27.3651 52.1081 29.9632C45.6551 34.9916 46.5816 42.1276 47.0796 44.399C44.1574 46.9647 41.7294 49.8584 39.9945 52.9047C39.2233 46.576 37.6075 39.799 34.5375 33.4591C36.6227 30.7779 42.3939 22.1827 37.3293 14.7723C28.0063 1.13134 2.37312 0.0434396 1.28644 0.00245703C0.905174 -0.0223809 0.556195 0.142791 0.311538 0.420976C0.0656384 0.700402 -0.0436502 1.07421 0.0159617 1.44181C0.16375 2.36082 3.73798 24.0555 12.3022 33.6628C14.7103 36.3652 17.953 37.735 21.9383 37.735C26.4564 37.735 30.6987 35.9541 32.5579 35.0537C39.8877 50.6445 38.2086 69.0208 37.271 75.583C37.1741 76.2623 37.646 76.8907 38.3254 76.9876C38.385 76.9963 38.4446 77 38.5029 77C39.1115 77 39.643 76.5529 39.7312 75.9344C40.228 72.4522 40.9197 65.7559 40.4453 57.8711C41.871 53.748 44.7684 49.7367 48.632 46.3277C50.4874 47.4218 55.0179 49.7764 59.7111 49.7764C61.8845 49.7764 63.8355 49.2672 65.5134 48.2625C74.6725 42.7771 76.8918 30.8313 76.9812 30.3258C77.0744 29.7943 76.8148 29.2628 76.3367 29.0107ZM21.937 35.2512C18.6907 35.2512 16.0715 34.1608 14.1539 32.0098C7.33582 24.361 3.72805 7.72581 2.74694 2.58808C8.39517 3.04634 27.9106 5.39104 35.2802 16.1732C38.9153 21.4935 35.3261 28.0072 33.2496 30.9977C30.7869 26.5803 27.5604 22.4435 23.3255 18.9178C22.7989 18.4781 22.0153 18.5502 21.5769 19.078C21.1372 19.6045 21.2093 20.3882 21.7371 20.8266C25.9149 24.3051 29.0669 28.4245 31.4377 32.832C29.7636 33.638 25.9136 35.2512 21.937 35.2512ZM64.2354 46.1327C62.9488 46.9027 61.4262 47.2939 59.7087 47.2939C56.2015 47.2939 52.6558 45.693 50.6936 44.635C53.088 42.8094 55.7656 41.2061 58.6419 39.9294C59.269 39.6512 59.5509 38.9173 59.274 38.2901C58.9946 37.6642 58.2643 37.3786 57.6359 37.6592C54.6168 38.9992 51.7989 40.682 49.2691 42.6032C48.9599 40.0946 49.1337 35.43 53.6357 31.9217C56.5219 29.6713 60.0042 28.5313 63.9833 28.5313C68.571 28.5313 72.6283 30.065 74.3297 30.8102C73.6392 33.6044 71.0523 42.0493 64.2354 46.1327Z" fill="#EFEFEF"/>
</svg>
